<svg width="58" height="58" viewBox="0 0 58 58" fill="none" xmlns="http://www.w3.org/2000/svg">
<circle cx="28.7914" cy="28.7916" r="22.5453" fill="white" stroke="#474B55"/>
<path d="M21.6356 36.572C21.5404 36.6655 21.4647 36.7768 21.4131 36.8993C21.3615 37.0218 21.3349 37.1533 21.3349 37.286C21.3349 37.4188 21.3615 37.5502 21.4131 37.6727C21.4647 37.7953 21.5404 37.9065 21.6356 38L19.3153 35.73C18.8985 35.3213 18.5677 34.8349 18.342 34.2991C18.1162 33.7632 18 33.1884 18 32.6079C18 32.0274 18.1162 31.4526 18.342 30.9168C18.5677 30.3809 18.8985 29.8945 19.3153 29.4858L28.9985 20L38.6847 29.4858C39.1015 29.8945 39.4323 30.3809 39.658 30.9168C39.8838 31.4526 40 32.0274 40 32.6079C40 33.1884 39.8838 33.7632 39.658 34.2991C39.4323 34.8349 39.1015 35.3213 38.6847 35.73L36.3644 38C36.4595 37.9064 36.535 37.7952 36.5866 37.6727C36.6381 37.5501 36.6646 37.4187 36.6646 37.286C36.6646 37.1533 36.6381 37.0219 36.5866 36.8994C36.535 36.7768 36.4595 36.6656 36.3644 36.572L29.0005 29.3583L21.6356 36.572Z" fill="#FFD400"/>
</svg>
